<svg width="191" height="118" viewBox="0 0 191 118" fill="none" xmlns="http://www.w3.org/2000/svg">
<path d="M190.5 80.382V100.179C190.5 101.283 189.605 102.179 188.5 102.179H2.5C1.39543 102.179 0.5 101.283 0.5 100.179V80.0317" stroke="#264758"/>
<path d="M1.42723 67.1415L21.1102 45.801H95.5V68.054V80.5618C95.5 82.4948 93.933 84.0618 92 84.0618H4C2.067 84.0618 0.5 82.4948 0.5 80.5618V69.5145C0.5 68.6351 0.831026 67.7879 1.42723 67.1415Z" stroke="#264758"/>
<path d="M189.573 67.1415L169.89 45.801H95.5V68.054V80.5618C95.5 82.4948 97.067 84.0618 99 84.0618H187C188.933 84.0618 190.5 82.4948 190.5 80.5618V69.5145C190.5 68.6351 190.169 67.7879 189.573 67.1415Z" stroke="#264758"/>
<path d="M170.5 4C170.5 2.067 168.933 0.5 167 0.5H99C97.067 0.5 95.5 2.067 95.5 4V45.8076H170.5V4Z" stroke="#264758"/>
<path d="M95.5 4C95.5 2.067 93.933 0.5 92 0.5H24C22.067 0.5 20.5 2.067 20.5 4V45.8076H95.5V4Z" stroke="#264758"/>
<path d="M187.134 102.175H178.511L181.316 116.292C181.456 116.994 182.072 117.5 182.788 117.5H185.634C186.462 117.5 187.134 116.828 187.134 116V102.175Z" stroke="#264758"/>
<path d="M4 102.175H12.6231L9.81776 116.292C9.67826 116.994 9.06224 117.5 8.34653 117.5H5.5C4.67157 117.5 4 116.828 4 116V102.175Z" stroke="#264758"/>
</svg>
