<svg width="98" height="118" viewBox="0 0 98 118" fill="none" xmlns="http://www.w3.org/2000/svg">
<path d="M4.5 102.245H13.1226L10.3189 116.294C10.1789 116.995 9.56315 117.5 8.84789 117.5H6C5.17157 117.5 4.5 116.828 4.5 116V102.245Z" stroke="#264758"/>
<path d="M94.2322 102.245H85.6095L88.4133 116.294C88.5533 116.995 89.169 117.5 89.8843 117.5H92.7322C93.5606 117.5 94.2322 116.828 94.2322 116V102.245Z" stroke="#264758"/>
<path d="M0.5 80.5416V100.246C0.5 101.35 1.39543 102.246 2.5 102.246L95.5 102.246C96.6046 102.246 97.5 101.35 97.5 100.246V80.1929" stroke="#264758"/>
<path d="M0.962995 65.818L12.5398 45.6084H85.4602L97.037 65.818C97.3404 66.3476 97.5 66.9473 97.5 67.5577V81.2048C97.5 83.1378 95.933 84.7048 94 84.7048H4C2.067 84.7048 0.5 83.1378 0.5 81.2048V67.5577C0.5 66.9473 0.659611 66.3476 0.962995 65.818Z" stroke="#264758"/>
<path d="M14.2851 3.85232C14.3643 1.97843 15.9064 0.5 17.782 0.5H80.218C82.0936 0.5 83.6357 1.97843 83.7149 3.85232L85.4784 45.6109H12.5216L14.2851 3.85232Z" stroke="#264758" stroke-linejoin="round"/>
</svg>
