<svg width="136" height="118" viewBox="0 0 136 118" fill="none" xmlns="http://www.w3.org/2000/svg">
<path d="M5.5 102.211H14.1229L11.3183 116.293C11.1786 116.995 10.5627 117.5 9.84723 117.5H7C6.17157 117.5 5.5 116.828 5.5 116V102.211Z" stroke="#264758"/>
<path d="M130.232 102.211H121.609L124.414 116.293C124.554 116.995 125.169 117.5 125.885 117.5H128.732C129.561 117.5 130.232 116.828 130.232 116V102.211Z" stroke="#264758"/>
<path d="M135.5 80.1665V100.212C135.5 101.317 134.605 102.212 133.5 102.212L2.5 102.212C1.39543 102.212 0.5 101.317 0.5 100.212V80.1663" stroke="#264758"/>
<path d="M1.11515 68.7196L25.2631 33.5686H107.754L134.774 68.6863C135.245 69.2982 135.5 70.0486 135.5 70.8206V83.1808C135.5 85.1138 133.933 86.6808 132 86.6808H4C2.06701 86.6808 0.5 85.1138 0.5 83.1808V70.7014C0.5 69.9938 0.714479 69.3029 1.11515 68.7196Z" stroke="#264758"/>
<path d="M25.5 4C25.5 2.067 27.067 0.5 29 0.5H104C105.933 0.5 107.5 2.067 107.5 4V33.5707H25.5V4Z" stroke="#264758"/>
<path d="M120.5 50.1038V50.1038C121.328 50.1038 122 49.4323 122 48.6038V33.8818C122 32.7113 121.487 31.5995 120.597 30.8395L111.417 23.0033C110.693 22.3852 109.772 22.0457 108.82 22.0457H108" stroke="#264758"/>
</svg>
