<svg width="165" height="118" viewBox="0 0 165 118" fill="none" xmlns="http://www.w3.org/2000/svg">
<path d="M18.5 4C18.5 2.067 20.067 0.5 22 0.5H94C95.933 0.5 97.5 2.067 97.5 4V43.16H18.5V4Z" stroke="#264758"/>
<path d="M1.3198 63.6807L18.5664 43.1448H139.029C139.889 43.1448 140.719 43.4614 141.361 44.0342L163.331 63.6549C164.075 64.319 164.5 65.2686 164.5 66.2655V82.3048C164.5 84.2378 162.933 85.8048 161 85.8048H4C2.067 85.8048 0.5 84.2378 0.5 82.3048V65.9316C0.5 65.1082 0.79028 64.3112 1.3198 63.6807Z" stroke="#264758"/>
<path d="M0.5 80.2129V99.5352C0.5 100.64 1.39543 101.535 2.5 101.535L162.5 101.535C163.605 101.535 164.5 100.64 164.5 99.535V80.2126" stroke="#264758"/>
<path d="M160.618 115.988L160.504 101.527H151.877L154.816 116.293C154.956 116.995 155.571 117.5 156.287 117.5H159.118C159.951 117.5 160.625 116.821 160.618 115.988Z" stroke="#264758"/>
<path d="M5.78373 115.988L5.89792 101.527H14.5248L11.586 116.293C11.4463 116.995 10.8304 117.5 10.1148 117.5H7.28368C6.45062 117.5 5.77715 116.821 5.78373 115.988Z" stroke="#264758"/>
</svg>
