<svg width="124" height="118" viewBox="0 0 124 118" fill="none" xmlns="http://www.w3.org/2000/svg">
<path d="M42.3217 7.05894C41.3211 4.62246 38.7336 3.23739 36.1512 3.75595L34.4327 4.10103C31.1907 4.75205 28.1062 6.02743 25.3511 7.85613L23.68 8.96532C21.9973 10.0822 21.0621 12.0315 21.244 14.0429L23.5918 40.0165L26.4649 58.1331C27.2425 63.0359 32.2316 66.0711 36.943 64.5075C39.2119 63.7545 41.0283 62.0314 41.8996 59.8053L45.0987 51.6327C45.2058 51.359 45.2897 51.0767 45.3495 50.789L46.0107 47.603C47.5238 40.3126 47.9867 32.8434 47.3853 25.4219C46.9818 20.4414 45.8101 15.5533 43.9118 10.931L42.3217 7.05894Z" stroke="#264758"/>
<path d="M34.3918 65V78.8743C34.3918 81.0834 36.1826 82.8743 38.3918 82.8743H73.458H104.846C105.874 82.8743 106.884 82.6105 107.78 82.1081L120.956 74.7221C122.218 74.0145 123 72.6801 123 71.2329V58.7685C123 57.8233 122.665 56.9087 122.055 56.1867L109.469 41.2915H47.5" stroke="#264758" stroke-linecap="square"/>
<path d="M123 71V90.249C123 91.8795 122.01 93.3468 120.499 93.9577L106.185 99.7417C105.471 100.03 104.708 100.179 103.937 100.179H61.6726H9.76893C7.66019 100.179 5.91363 98.5416 5.7773 96.4373L1.31973 27.6305C1.12379 24.606 2.65386 21.7304 5.2718 20.2032L15.0943 14.4729C16.012 13.9376 17.0553 13.6555 18.1177 13.6555H20.8605" stroke="#264758" stroke-linecap="square"/>
<path d="M34.3918 4V4C34.3918 2.34315 35.735 1 37.3918 1H105.469C107.678 1 109.469 2.79086 109.469 5V41.2914H47.2625" stroke="#264758" stroke-linecap="square"/>
<path d="M100.112 100.179H92.1871L94.813 115.75C94.9347 116.472 95.5599 117 96.2921 117H98.6118C99.4402 117 100.112 116.329 100.112 115.5V100.179Z" stroke="#264758"/>
<path d="M120.5 93.9246L119.19 94.4625L119.19 94.4625L119.186 94.4642L116.686 95.4642L114.196 96.4601L113.057 96.9756L115.202 109.748C115.323 110.471 115.949 111 116.681 111H119C119.828 111 120.5 110.328 120.5 109.5V93.9246Z" stroke="#264758"/>
<path d="M12.4839 100.179H20.4086L17.7827 115.75C17.661 116.472 17.0358 117 16.3036 117H13.9839C13.1555 117 12.4839 116.329 12.4839 115.5V100.179Z" stroke="#264758"/>
</svg>
