<svg width="124" height="119" viewBox="0 0 124 119" fill="none" xmlns="http://www.w3.org/2000/svg">
<path d="M116.5 103H107.877L110.681 117.049C110.821 117.75 111.437 118.255 112.152 118.255H115C115.828 118.255 116.5 117.584 116.5 116.755V103Z" stroke="#264758"/>
<path d="M9.76782 103H18.3905L15.5867 117.049C15.4467 117.75 14.831 118.255 14.1157 118.255H11.2678C10.4394 118.255 9.76782 117.584 9.76782 116.755V103Z" stroke="#264758"/>
<path d="M51 45H107L122.228 65.8118C122.73 66.4972 123 67.3245 123 68.1738V82C123 84.2091 121.209 86 119 86H41C38.7909 86 37 84.2091 37 82V70.2746" stroke="#264758" stroke-linecap="square"/>
<path d="M123 82V99C123 101.209 121.209 103 119 103H7.61537C5.45952 103 3.69149 101.291 3.61771 99.1369L1.16298 27.4519C1.06255 24.519 2.576 21.7665 5.10636 20.2802L16.2066 13.7597C17.0535 13.2623 18.0178 13 19 13V13" stroke="#264758" stroke-linecap="square"/>
<path d="M46.8161 9.19448C46.4099 6.76365 44.4363 4.89977 41.9863 4.63316L38.9076 4.29814C34.188 3.78457 29.4188 4.5987 25.1369 6.64887L22.1159 8.09529C19.9809 9.11753 18.7394 11.3911 19.0338 13.7399L22.5733 41.9848L26.7294 60.8894C28.1188 67.209 34.4231 71.1589 40.7158 69.6524C45.5525 68.4945 49.1072 64.3737 49.5429 59.4194L50.3197 50.5859C51.101 41.7016 50.7525 32.7541 49.2828 23.9574L46.8161 9.19448Z" stroke="#264758"/>
<path d="M51 45H107V5C107 2.79086 105.209 1 103 1H34.5C32.567 1 31 2.567 31 4.5V4.5" stroke="#264758" stroke-linecap="square"/>
</svg>
