<svg width="165" height="118" viewBox="0 0 165 118" fill="none" xmlns="http://www.w3.org/2000/svg">
<path d="M146.5 4C146.5 2.067 144.933 0.5 143 0.5H71C69.067 0.5 67.5 2.067 67.5 4V43.16H146.5V4Z" stroke="#264758"/>
<path d="M163.68 63.6807L146.434 43.1448H25.9706C25.1105 43.1448 24.2807 43.4614 23.6392 44.0342L1.66869 63.6549C0.92511 64.319 0.5 65.2686 0.5 66.2655V82.3048C0.5 84.2378 2.067 85.8048 4 85.8048H161C162.933 85.8048 164.5 84.2378 164.5 82.3048V65.9316C164.5 65.1082 164.21 64.3112 163.68 63.6807Z" stroke="#264758"/>
<path d="M164.5 80.2129V99.5352C164.5 100.64 163.605 101.535 162.5 101.535L2.49979 101.535C1.39522 101.535 0.499786 100.64 0.499786 99.535V80.2126" stroke="#264758"/>
<path d="M4.38187 115.988L4.49607 101.527H13.123L10.1841 116.293C10.0445 116.995 9.42854 117.5 8.71299 117.5H5.88182C5.04877 117.5 4.37529 116.821 4.38187 115.988Z" stroke="#264758"/>
<path d="M159.216 115.988L159.102 101.527H150.475L153.414 116.293C153.554 116.995 154.17 117.5 154.885 117.5H157.716C158.549 117.5 159.223 116.821 159.216 115.988Z" stroke="#264758"/>
</svg>
