<svg width="124" height="118" viewBox="0 0 124 118" fill="none" xmlns="http://www.w3.org/2000/svg">
<path d="M81.6783 7.05894C82.6789 4.62246 85.2664 3.23739 87.8488 3.75595L89.5673 4.10103C92.8093 4.75205 95.8938 6.02743 98.6489 7.85613L100.32 8.96532C102.003 10.0822 102.938 12.0315 102.756 14.0429L100.408 40.0165L97.5351 58.1331C96.7575 63.0359 91.7684 66.0711 87.057 64.5075C84.7881 63.7545 82.9717 62.0314 82.1004 59.8053L78.9013 51.6327C78.7942 51.359 78.7103 51.0767 78.6505 50.789L77.9893 47.603C76.4762 40.3126 76.0133 32.8434 76.6147 25.4219C77.0182 20.4414 78.1899 15.5533 80.0882 10.931L81.6783 7.05894Z" stroke="#264758"/>
<path d="M89.6082 65V78.8743C89.6082 81.0834 87.8174 82.8743 85.6082 82.8743H50.542H19.1538C18.1263 82.8743 17.1161 82.6105 16.2199 82.1081L3.04408 74.7221C1.7817 74.0145 1 72.6801 1 71.2329V58.7685C1 57.8233 1.33469 56.9087 1.94473 56.1867L14.5313 41.2915H76.5" stroke="#264758" stroke-linecap="square"/>
<path d="M1 71V90.249C1 91.8795 1.98964 93.3468 3.50135 93.9577L17.8147 99.7417C18.5291 100.03 19.2923 100.179 20.0627 100.179H62.3274H114.231C116.34 100.179 118.086 98.5416 118.223 96.4373L122.68 27.6305C122.876 24.606 121.346 21.7304 118.728 20.2032L108.906 14.4729C107.988 13.9376 106.945 13.6555 105.882 13.6555H103.14" stroke="#264758" stroke-linecap="square"/>
<path d="M89.6082 4V4C89.6082 2.34315 88.265 1 86.6082 1H18.5313C16.3221 1 14.5312 2.79086 14.5312 5V41.2914H76.7375" stroke="#264758" stroke-linecap="square"/>
<path d="M23.8882 100.179H31.8129L29.187 115.75C29.0653 116.472 28.4401 117 27.7079 117H25.3882C24.5598 117 23.8882 116.329 23.8882 115.5V100.179Z" stroke="#264758"/>
<path d="M3.5 93.9246L4.81009 94.4625L4.81008 94.4625L4.8143 94.4642L7.3143 95.4642L9.80398 96.4601L10.9431 96.9756L8.79789 109.748C8.67655 110.471 8.05115 111 7.31861 111H5C4.17157 111 3.5 110.328 3.5 109.5V93.9246Z" stroke="#264758"/>
<path d="M111.516 100.179H103.591L106.217 115.75C106.339 116.472 106.964 117 107.696 117H110.016C110.845 117 111.516 116.329 111.516 115.5V100.179Z" stroke="#264758"/>
</svg>
