<svg width="124" height="119" viewBox="0 0 124 119" fill="none" xmlns="http://www.w3.org/2000/svg">
<path d="M7.5 103H16.1226L13.3189 117.049C13.1789 117.75 12.5631 118.255 11.8479 118.255H9C8.17157 118.255 7.5 117.584 7.5 116.755V103Z" stroke="#264758"/>
<path d="M114.232 103H105.61L108.413 117.049C108.553 117.75 109.169 118.255 109.884 118.255H112.732C113.561 118.255 114.232 117.584 114.232 116.755V103Z" stroke="#264758"/>
<path d="M73 45H17L1.77188 65.8118C1.27034 66.4972 1 67.3245 1 68.1738V82C1 84.2091 2.79086 86 5 86H83C85.2091 86 87 84.2091 87 82V70.2746" stroke="#264758" stroke-linecap="square"/>
<path d="M1 82V99C1 101.209 2.79086 103 5 103H116.385C118.54 103 120.309 101.291 120.382 99.1369L122.837 27.4519C122.937 24.519 121.424 21.7665 118.894 20.2802L107.793 13.7597C106.947 13.2623 105.982 13 105 13V13" stroke="#264758" stroke-linecap="square"/>
<path d="M77.1839 9.19448C77.5901 6.76365 79.5637 4.89977 82.0137 4.63316L85.0924 4.29814C89.812 3.78457 94.5812 4.5987 98.8631 6.64887L101.884 8.09529C104.019 9.11753 105.261 11.3911 104.966 13.7399L101.427 41.9848L97.2706 60.8894C95.8812 67.209 89.5769 71.1589 83.2842 69.6524C78.4475 68.4945 74.8928 64.3737 74.4571 59.4194L73.6803 50.5859C72.899 41.7016 73.2475 32.7541 74.7172 23.9574L77.1839 9.19448Z" stroke="#264758"/>
<path d="M73 45H17V5C17 2.79086 18.7909 1 21 1H89.5C91.433 1 93 2.567 93 4.5V4.5" stroke="#264758" stroke-linecap="square"/>
</svg>
