<svg width="102" height="118" viewBox="0 0 102 118" fill="none" xmlns="http://www.w3.org/2000/svg">
<path d="M95.5 102.245H86.8774L89.6811 116.293C89.8211 116.995 90.4369 117.5 91.1521 117.5H94C94.8284 117.5 95.5 116.828 95.5 116V102.245Z" stroke="#264758"/>
<path d="M5.76782 102.245H14.3905L11.5867 116.293C11.4467 116.995 10.831 117.5 10.1157 117.5H7.26782C6.43939 117.5 5.76782 116.828 5.76782 116V102.245Z" stroke="#264758"/>
<path d="M0.5 79.1904V100.246C0.5 101.35 1.39543 102.246 2.5 102.246L99.5 102.246C100.605 102.246 101.5 101.35 101.5 100.246V79.1904" stroke="#264758"/>
<path d="M101.062 67.4493L81.2053 31.5747H26.757L1.15359 67.3581C0.728539 67.9522 0.5 68.6643 0.5 69.3948V81.2048C0.5 83.1378 2.067 84.7048 4 84.7048H98C99.933 84.7048 101.5 83.1378 101.5 81.2048V69.1443C101.5 68.5513 101.349 67.9681 101.062 67.4493Z" stroke="#264758"/>
<path d="M81.5 4C81.5 2.067 79.933 0.5 78 0.5H30C28.067 0.5 26.5 2.067 26.5 4V31.5771H81.5V4Z" stroke="#264758"/>
<path d="M13.5 50.1205V50.1205C13.2239 50.1205 13 49.8966 13 49.6205V26.8424C13 25.732 13.4616 24.6715 14.2743 23.9149L22.553 16.207C23.2933 15.5177 24.2672 15.1345 25.2787 15.1345H26" stroke="#264758"/>
</svg>
