<svg width="102" height="118" viewBox="0 0 102 118" fill="none" xmlns="http://www.w3.org/2000/svg">
<path d="M6.5 102.245H15.1226L12.3189 116.293C12.1789 116.995 11.5631 117.5 10.8479 117.5H8C7.17157 117.5 6.5 116.828 6.5 116V102.245Z" stroke="#264758"/>
<path d="M96.2322 102.245H87.6095L90.4133 116.293C90.5533 116.995 91.169 117.5 91.8843 117.5H94.7322C95.5606 117.5 96.2322 116.828 96.2322 116V102.245Z" stroke="#264758"/>
<path d="M101.5 79.1904V100.246C101.5 101.35 100.605 102.246 99.5 102.246L2.5 102.246C1.39543 102.246 0.5 101.35 0.5 100.246V79.1904" stroke="#264758"/>
<path d="M0.937793 67.4493L20.7947 31.5747H75.243L100.846 67.3581C101.271 67.9522 101.5 68.6643 101.5 69.3948V81.2048C101.5 83.1378 99.933 84.7048 98 84.7048H4C2.067 84.7048 0.5 83.1378 0.5 81.2048V69.1443C0.5 68.5513 0.650643 67.9681 0.937793 67.4493Z" stroke="#264758"/>
<path d="M20.5 4C20.5 2.067 22.067 0.5 24 0.5H72C73.933 0.5 75.5 2.067 75.5 4V31.5771H20.5V4Z" stroke="#264758"/>
<path d="M88.5 50.1205V50.1205C88.7761 50.1205 89 49.8966 89 49.6205V26.8424C89 25.732 88.5384 24.6715 87.7257 23.9149L79.447 16.207C78.7067 15.5177 77.7328 15.1345 76.7213 15.1345H76" stroke="#264758"/>
</svg>
