<svg width="136" height="118" viewBox="0 0 136 118" fill="none" xmlns="http://www.w3.org/2000/svg">
<path d="M130.5 102.211H121.877L124.682 116.293C124.821 116.995 125.437 117.5 126.153 117.5H129C129.828 117.5 130.5 116.828 130.5 116V102.211Z" stroke="#264758"/>
<path d="M5.76782 102.211H14.3907L11.5862 116.293C11.4464 116.995 10.8305 117.5 10.115 117.5H7.26782C6.43939 117.5 5.76782 116.828 5.76782 116V102.211Z" stroke="#264758"/>
<path d="M0.5 80.1665V100.212C0.5 101.317 1.39543 102.212 2.5 102.212L133.5 102.212C134.605 102.212 135.5 101.317 135.5 100.212V80.1663" stroke="#264758"/>
<path d="M134.885 68.7196L110.737 33.5686H28.2462L1.22606 68.6863C0.755264 69.2982 0.5 70.0486 0.5 70.8206V83.1808C0.5 85.1138 2.067 86.6808 4 86.6808H132C133.933 86.6808 135.5 85.1138 135.5 83.1808V70.7014C135.5 69.9938 135.286 69.3029 134.885 68.7196Z" stroke="#264758"/>
<path d="M110.5 4C110.5 2.067 108.933 0.5 107 0.5H32C30.067 0.5 28.5 2.067 28.5 4V33.5707H110.5V4Z" stroke="#264758"/>
<path d="M15.5 50.1038V50.1038C14.6716 50.1038 14 49.4323 14 48.6038V33.8818C14 32.7113 14.5127 31.5995 15.403 30.8395L24.583 23.0033C25.3071 22.3852 26.2279 22.0457 27.18 22.0457H28" stroke="#264758"/>
</svg>
