<svg width="206" height="118" viewBox="0 0 206 118" fill="none" xmlns="http://www.w3.org/2000/svg">
<path d="M15.5 102.179H5C2.79086 102.179 0.999996 100.388 0.999996 98.1787V51.0116C0.999996 49.7314 1.6127 48.5286 2.64818 47.776L29.1452 28.5164C29.8287 28.0196 30.652 27.752 31.497 27.752H35.063" stroke="#264758"/>
<path d="M205 80.382V100.179C205 101.283 204.105 102.179 203 102.179H15V80.0317" stroke="#264758"/>
<path d="M15.9272 67.1415L35.6102 45.801H110V68.054V80.5618C110 82.4948 108.433 84.0618 106.5 84.0618H18.5C16.567 84.0618 15 82.4948 15 80.5618V69.5145C15 68.6351 15.331 67.7879 15.9272 67.1415Z" stroke="#264758"/>
<path d="M204.073 67.1415L184.39 45.801H110V68.054V80.5618C110 82.4948 111.567 84.0618 113.5 84.0618H201.5C203.433 84.0618 205 82.4948 205 80.5618V69.5145C205 68.6351 204.669 67.7879 204.073 67.1415Z" stroke="#264758"/>
<path d="M185 4C185 2.067 183.433 0.5 181.5 0.5H113.5C111.567 0.5 110 2.067 110 4V45.8076H185V4Z" stroke="#264758"/>
<path d="M110 4C110 2.067 108.433 0.5 106.5 0.5H38.5C36.567 0.5 35 2.067 35 4V45.8076H110V4Z" stroke="#264758"/>
<path d="M201.634 102.175H193.011L195.816 116.292C195.956 116.994 196.572 117.5 197.288 117.5H200.134C200.962 117.5 201.634 116.828 201.634 116V102.175Z" stroke="#264758"/>
<path d="M4.74414 102.175H13.3673L10.5619 116.292C10.4224 116.994 9.80638 117.5 9.09067 117.5H6.24414C5.41571 117.5 4.74414 116.828 4.74414 116V102.175Z" stroke="#264758"/>
</svg>
