<svg width="114" height="118" viewBox="0 0 114 118" fill="none" xmlns="http://www.w3.org/2000/svg">
<path d="M108.563 102.245H99.9404L102.744 116.294C102.884 116.995 103.5 117.5 104.215 117.5H107.063C107.891 117.5 108.563 116.828 108.563 116V102.245Z" stroke="#264758"/>
<path d="M7.83081 102.245H16.4534L13.6497 116.294C13.5097 116.995 12.894 117.5 12.1787 117.5H9.33081C8.50238 117.5 7.83081 116.828 7.83081 116V102.245Z" stroke="#264758"/>
<path d="M112.563 80.5416V100.246C112.563 101.35 111.668 102.246 110.563 102.246L15.563 102.246V80.1929" stroke="#264758"/>
<path d="M112.1 65.818L100.523 45.6084H27.6028L16.026 65.818C15.7226 66.3476 15.563 66.9473 15.563 67.5577V81.2048C15.563 83.1378 17.13 84.7048 19.063 84.7048H109.063C110.996 84.7048 112.563 83.1378 112.563 81.2048V67.5577C112.563 66.9473 112.403 66.3476 112.1 65.818Z" stroke="#264758"/>
<path d="M15.5 102.246H5C2.79086 102.246 0.999996 100.455 0.999996 98.246V50.9406C0.999996 49.8302 1.46159 48.7698 2.2743 48.0131L22.545 29.1401C23.2853 28.4508 24.2592 28.0676 25.2707 28.0676H28.563" stroke="#264758"/>
<path d="M98.7779 3.85232C98.6987 1.97843 97.1565 0.5 95.281 0.5H32.845C30.9694 0.5 29.4273 1.97843 29.3481 3.85232L27.5846 45.6109H100.541L98.7779 3.85232Z" stroke="#264758" stroke-linejoin="round"/>
</svg>
