<svg width="132" height="118" viewBox="0 0 132 118" fill="none" xmlns="http://www.w3.org/2000/svg">
<path d="M123.563 102.245H114.94L117.744 116.294C117.884 116.995 118.5 117.5 119.215 117.5H122.063C122.891 117.5 123.563 116.828 123.563 116V102.245Z" stroke="#264758"/>
<path d="M7.83081 102.245H16.4534L13.6497 116.294C13.5097 116.995 12.894 117.5 12.1787 117.5H9.33081C8.50238 117.5 7.83081 116.828 7.83081 116V102.245Z" stroke="#264758"/>
<path d="M130.471 80.5416V100.246C130.471 101.35 129.576 102.246 128.471 102.246L15.6549 102.246V80.1929" stroke="#264758"/>
<path d="M129.96 65.7572L116.298 45.6084H27.8499L16.0413 65.8102C15.7281 66.3461 15.563 66.9557 15.563 67.5765V81.2048C15.563 83.1378 17.13 84.7048 19.063 84.7048H127.063C128.996 84.7048 130.563 83.1378 130.563 81.2048V67.7214C130.563 67.0211 130.353 66.3368 129.96 65.7572Z" stroke="#264758"/>
<path d="M15.5 102.246H5C2.79086 102.246 0.999996 100.455 0.999996 98.246V50.9406C0.999996 49.8302 1.46159 48.7698 2.2743 48.0131L22.545 29.1401C23.2853 28.4508 24.2592 28.0676 25.2707 28.0676H28.563" stroke="#264758"/>
<path d="M114.391 3.82004C114.295 1.95945 112.758 0.5 110.895 0.5H33.2308C31.3677 0.5 29.8312 1.95944 29.7354 3.82003L27.5894 45.5H116.537L114.391 3.82004Z" stroke="#264758" stroke-linejoin="round"/>
</svg>
