<svg width="205" height="118" viewBox="0 0 205 118" fill="none" xmlns="http://www.w3.org/2000/svg">
<path d="M190 102.179H200.5C202.709 102.179 204.5 100.388 204.5 98.1787V51.0116C204.5 49.7314 203.887 48.5286 202.852 47.776L176.355 28.5164C175.671 28.0196 174.848 27.752 174.003 27.752H170.437" stroke="#264758"/>
<path d="M0.5 80.382V100.179C0.5 101.283 1.39543 102.179 2.5 102.179H190.5V80.0317" stroke="#264758"/>
<path d="M189.573 67.1415L169.89 45.801H95.5V68.054V80.5618C95.5 82.4948 97.067 84.0618 99 84.0618H187C188.933 84.0618 190.5 82.4948 190.5 80.5618V69.5145C190.5 68.6351 190.169 67.7879 189.573 67.1415Z" stroke="#264758"/>
<path d="M1.42723 67.1415L21.1102 45.801H95.5V68.054V80.5618C95.5 82.4948 93.933 84.0618 92 84.0618H4C2.067 84.0618 0.5 82.4948 0.5 80.5618V69.5145C0.5 68.6351 0.831026 67.7879 1.42723 67.1415Z" stroke="#264758"/>
<path d="M20.5 4C20.5 2.067 22.067 0.5 24 0.5H92C93.933 0.5 95.5 2.067 95.5 4V45.8076H20.5V4Z" stroke="#264758"/>
<path d="M95.5 4C95.5 2.067 97.067 0.5 99 0.5H167C168.933 0.5 170.5 2.067 170.5 4V45.8076H95.5V4Z" stroke="#264758"/>
<path d="M3.86597 102.175H12.4891L9.68372 116.292C9.54422 116.994 8.92821 117.5 8.21249 117.5H5.36597C4.53754 117.5 3.86597 116.828 3.86597 116V102.175Z" stroke="#264758"/>
<path d="M200.756 102.175H192.133L194.938 116.292C195.078 116.994 195.694 117.5 196.409 117.5H199.256C200.084 117.5 200.756 116.828 200.756 116V102.175Z" stroke="#264758"/>
</svg>
