<svg width="131" height="118" viewBox="0 0 131 118" fill="none" xmlns="http://www.w3.org/2000/svg">
<path d="M7.5 102.245H16.1226L13.3189 116.294C13.1789 116.995 12.5631 117.5 11.8479 117.5H9C8.17157 117.5 7.5 116.828 7.5 116V102.245Z" stroke="#264758"/>
<path d="M123.232 102.245H114.61L117.413 116.294C117.553 116.995 118.169 117.5 118.884 117.5H121.732C122.561 117.5 123.232 116.828 123.232 116V102.245Z" stroke="#264758"/>
<path d="M0.591797 80.5416V100.246C0.591797 101.35 1.48723 102.246 2.5918 102.246L115.408 102.246V80.1929" stroke="#264758"/>
<path d="M1.10314 65.7572L14.7651 45.6084H103.213L115.022 65.8102C115.335 66.3461 115.5 66.9557 115.5 67.5765V81.2048C115.5 83.1378 113.933 84.7048 112 84.7048H4C2.06701 84.7048 0.5 83.1378 0.5 81.2048V67.7214C0.5 67.0211 0.710101 66.3368 1.10314 65.7572Z" stroke="#264758"/>
<path d="M115.563 102.246H126.063C128.272 102.246 130.063 100.455 130.063 98.246V50.9406C130.063 49.8302 129.601 48.7698 128.789 48.0131L108.518 29.1401C107.778 28.4508 106.804 28.0676 105.792 28.0676H102.5" stroke="#264758"/>
<path d="M16.6724 3.82004C16.7682 1.95945 18.3047 0.5 20.1678 0.5H97.8322C99.6953 0.5 101.232 1.95944 101.328 3.82003L103.474 45.5H14.5264L16.6724 3.82004Z" stroke="#264758" stroke-linejoin="round"/>
</svg>
